<svg xmlns="http://www.w3.org/2000/svg" viewBox="0 0 320 180" role="img" aria-label="足球场与足球">
  <defs>
    <linearGradient id="g" x1="0" x2="1" y1="0" y2="1">
      <stop offset="0" stop-color="#0b4b3f"/>
      <stop offset="1" stop-color="#173625"/>
    </linearGradient>
    <filter id="s" x="-20%" y="-20%" width="140%" height="140%">
      <feDropShadow dx="0" dy="12" stdDeviation="10" flood-opacity=".24"/>
    </filter>
  </defs>
  <rect width="320" height="180" rx="18" fill="url(#g)"/>
  <g fill="none" stroke="#e9f2e8" stroke-opacity=".58" stroke-width="3">
    <rect x="18" y="18" width="284" height="144" rx="2"/>
    <path d="M160 18v144"/>
    <circle cx="160" cy="90" r="34"/>
    <path d="M18 58h42v64H18M302 58h-42v64h42"/>
    <path d="M18 74h18v32H18M302 74h-18v32h18"/>
  </g>
  <g filter="url(#s)">
    <circle cx="226" cy="88" r="38" fill="#fcfbf7"/>
    <path d="M226 55l18 13-7 21h-22l-7-21z" fill="#171a16"/>
    <path d="M208 68l-18 10 8 21 18-10M244 68l18 10-8 21-18-10M198 99l5 22 23 4-10-20M254 99l-5 22-23 4 10-20" fill="none" stroke="#171a16" stroke-width="5" stroke-linejoin="round"/>
  </g>
  <g font-family="Arial, sans-serif" font-weight="700">
    <text x="32" y="38" fill="#9bd35a" font-size="14">绿茵神噜</text>
    <text x="32" y="78" fill="#fcfbf7" font-size="24">混合过关</text>
    <text x="32" y="112" fill="#fcfbf7" fill-opacity=".72" font-size="13">赛果复盘 · 赔率快照</text>
  </g>
</svg>
